<svg xmlns="http://www.w3.org/2000/svg" width="30" height="18" viewBox="0 0 30 18">
    <path fill="#8D9EC3" fill-opacity=".7" fill-rule="nonzero" d="M15 0C9.268 0 4.07 3.156.235 8.283a1.202 1.202 0 0 0 0 1.427C4.07 14.844 9.268 18 15 18c5.732 0 10.93-3.156 14.765-8.283a1.202 1.202 0 0 0 0-1.427C25.93 3.156 20.732 0 15 0zm.411 15.338c-3.805.24-6.947-2.916-6.707-6.752.196-3.163 2.743-5.726 5.885-5.924 3.805-.24 6.947 2.916 6.707 6.752-.202 3.156-2.749 5.72-5.885 5.924zm-.19-2.928a3.403 3.403 0 0 1-3.609-3.632 3.423 3.423 0 0 1 3.173-3.194 3.403 3.403 0 0 1 3.609 3.632c-.11 1.711-1.485 3.089-3.173 3.194z"/>
</svg>
