<?xml version="1.0" encoding="UTF-8" standalone="no"?>
<!-- Created with Inkscape (http://www.inkscape.org/) -->
<svg
   xmlns:svg="http://www.w3.org/2000/svg"
   xmlns="http://www.w3.org/2000/svg"
   version="1.0"
   width="1133.8583"
   height="523.70074"
   id="svg2">
  <defs
     id="defs4" />
  <g
     transform="translate(1711.4398,708.50313)"
     id="layer1">
    <g
       transform="translate(35.433073,35.404362)"
       id="g2720">
      <path
         d="M -1548.79,-369.3445 L -1426.3815,-369.3445 C -1437.9981,-388.70285 -1444.6731,-411.36954 -1444.6731,-435.59455 C -1444.6731,-535.00294 -1364.0895,-615.57804 -1264.6731,-615.57804 L -648.44767,-612.76134 L -680.24768,-501.85293 L -801.81432,-501.85293 L -871.58954,-258.42775 L -1002.4646,-258.44443 L -932.66416,-501.85293 L -1055.4896,-501.85293 C -1043.873,-482.48624 -1037.1896,-459.81955 -1037.1896,-435.59455 C -1037.1896,-336.19449 -1117.781,-255.61111 -1217.198,-255.61111 L -1220.423,-255.62773 L -1711.4398,-258.44443 L -1609.84,-612.74466 L -1478.9895,-612.74466 L -1548.79,-369.3445 z M -1315.6977,-435.58621 C -1315.6977,-476.87792 -1282.2231,-510.34461 -1240.9311,-510.34461 C -1199.6396,-510.34461 -1166.1728,-476.87792 -1166.1728,-435.58621 C -1166.1728,-394.30283 -1199.6396,-360.8278 -1240.9311,-360.8278 C -1282.2231,-360.8278 -1315.6977,-394.30283 -1315.6977,-435.58621 z M -1258.2477,-422.71956 L -1216.5812,-506.29461 C -1211.4476,-503.78625 -1207.9898,-498.30296 -1207.9898,-492.21128 C -1207.9898,-489.31958 -1208.7644,-486.6029 -1210.148,-484.28624 L -1246.0065,-424.61124 L -1233.8979,-426.46956 C -1233.2727,-426.56952 -1232.6313,-426.61122 -1231.9731,-426.61122 C -1225.2063,-426.61122 -1219.7144,-421.11954 -1219.7144,-414.35286 L -1185.9644,-414.35286 L -1188.998,-418.16952 L -1195.1726,-418.16952 L -1196.531,-420.04452 L -1178.5892,-420.04452 C -1176.656,-416.81118 -1173.206,-414.5862 -1169.231,-414.35286 L -1169.8064,-412.4862 L -1245.6897,-412.4862 L -1214.306,-388.39451 C -1210.823,-385.72787 -1208.6396,-381.46949 -1208.6396,-376.74449 C -1208.6396,-372.67787 -1210.256,-368.92786 -1212.923,-366.25282 L -1259.9649,-412.4862 L -1312.0563,-412.4862 L -1312.6311,-414.35286 L -1258.2477,-422.71956"
         id="path2660"
         style="fill:#063778;fill-opacity:1;fill-rule:evenodd;stroke:none" />
      <path
         d="M -913.34776,-708.50313 L -903.38115,-708.50313 L -917.10616,-660.62809 L -927.08116,-660.62809 L -913.34776,-708.50313 z M -1114.2146,-708.50313 L -1104.2396,-708.50313 L -1115.681,-668.60312 L -1093.748,-668.60312 L -1096.031,-660.62809 L -1127.9396,-660.62809 L -1114.2146,-708.50313 z M -792.11412,-660.62809 L -778.38071,-708.50313 L -744.4477,-708.50313 L -746.7307,-700.51977 L -771.53111,-700.51977 L -774.68111,-689.5448 L -754.08071,-689.56142 L -756.36431,-681.57812 L -776.97251,-681.57812 L -780.68951,-668.60312 L -755.88911,-668.60312 L -758.18111,-660.62809 L -792.11412,-660.62809 z M -831.33073,-708.50313 L -833.58073,-700.51977 L -807.14772,-700.51977 C -807.14772,-700.51977 -808.42272,-700.19481 -810.23952,-698.51979 L -842.76433,-668.60312 L -845.03953,-660.62809 L -806.08092,-660.62809 L -803.78952,-668.60312 L -830.29753,-668.60312 C -830.29753,-668.60312 -828.77233,-669.11144 -827.17273,-670.58642 L -794.63952,-700.52811 L -792.33912,-708.50313 L -831.33073,-708.50313 z M -880.93935,-668.60312 L -854.71454,-668.60312 L -857.00594,-660.62809 L -881.26455,-660.62809 C -891.36435,-660.62809 -899.07255,-667.88642 -896.34795,-677.40308 L -891.04755,-695.89479 C -888.80595,-703.72815 -880.50615,-708.50313 -872.59754,-708.50313 L -861.77234,-708.50313 C -851.89754,-708.50313 -844.12273,-705.56145 -846.53113,-697.16145 L -849.57254,-686.55314 L -858.99734,-686.56142 L -856.33934,-695.85315 C -855.69734,-698.09481 -856.98074,-700.51977 -859.60574,-700.51977 L -873.53954,-700.51977 C -877.37234,-700.51977 -881.55615,-697.30311 -882.62235,-693.56144 L -886.83075,-678.90308 C -888.92235,-671.56976 -885.50595,-668.60312 -880.93935,-668.60312 z M -988.36458,-660.62809 L -974.63957,-708.50313 L -962.14757,-708.50313 L -952.10597,-672.5948 C -951.28097,-669.63644 -951.28097,-668.60312 -951.28097,-668.60312 L -939.83116,-708.50313 L -931.30576,-708.50313 L -945.03076,-660.62809 L -957.84797,-660.62809 L -967.58117,-696.52815 C -968.28077,-699.11979 -968.34797,-700.76145 -968.34797,-700.76145 L -979.83918,-660.62809 L -988.36458,-660.62809 z M -1024.9646,-708.50313 L -1027.256,-700.51977 L -1012.7396,-700.51977 L -1024.181,-660.62809 L -1014.2894,-660.62809 L -1002.848,-700.51977 L -988.88958,-700.51977 L -986.60598,-708.50313 L -1024.9646,-708.50313 z M -1211.981,-708.50313 L -1202.006,-708.50313 L -1215.7394,-660.62809 L -1225.7145,-660.62809 L -1211.981,-708.50313 z M -1301.1981,-708.50313 L -1291.2231,-708.50313 L -1304.9565,-660.62809 L -1314.9315,-660.62809 L -1301.1981,-708.50313 z M -1341.0813,-708.50313 L -1331.1063,-708.50313 L -1342.5477,-668.60312 L -1320.6147,-668.60312 L -1322.9061,-660.62809 L -1354.8063,-660.62809 L -1341.0813,-708.50313 z M -1197.7814,-660.62809 L -1184.0564,-708.50313 L -1150.1144,-708.50313 L -1152.4064,-700.51977 L -1177.2062,-700.51977 L -1180.3562,-689.5448 L -1159.7564,-689.56142 L -1162.0394,-681.57812 L -1182.6392,-681.56978 L -1186.3646,-668.60312 L -1161.5564,-668.60312 L -1163.8478,-660.62809 L -1197.7814,-660.62809 z M -1286.9979,-660.62809 L -1273.2813,-708.50313 L -1260.7815,-708.50313 L -1250.7477,-672.5948 C -1249.9227,-669.63644 -1249.9227,-668.60312 -1249.9227,-668.60312 L -1238.4645,-708.50313 L -1229.9481,-708.50313 L -1243.6647,-660.62809 L -1256.4897,-660.62809 L -1266.2145,-696.52815 C -1266.9147,-699.11979 -1266.9897,-700.76145 -1266.9897,-700.76145 L -1278.4731,-660.62809 L -1286.9979,-660.62809 z M -1071.7892,-668.61146 L -1058.2478,-668.61146 C -1054.6478,-668.61146 -1050.473,-671.51978 -1049.0564,-676.46144 L -1044.1814,-693.45314 C -1042.9646,-697.70313 -1046.5478,-700.46145 -1048.7396,-700.45311 L -1062.506,-700.42815 C -1066.331,-700.41981 -1070.4476,-697.24479 -1071.5144,-693.5198 L -1076.156,-677.38646 C -1077.8894,-671.3198 -1074.4064,-668.61146 -1071.7892,-668.61146 z M -1061.5064,-708.43647 L -1048.0646,-708.43647 C -1041.0392,-708.43647 -1032.8144,-702.04479 -1035.1394,-693.94478 L -1040.9312,-673.72808 C -1043.1812,-665.90312 -1051.6814,-660.62809 -1059.6062,-660.62809 L -1070.1644,-660.62809 C -1080.248,-660.62809 -1087.9562,-667.87808 -1085.231,-677.38646 L -1079.9396,-695.84481 C -1077.6896,-703.66977 -1069.3892,-708.43647 -1061.5064,-708.43647 z M -1491.7647,-708.50313 L -1481.7897,-708.50313 L -1495.5231,-660.62809 L -1505.4981,-660.62809 L -1491.7647,-708.50313 z M -1478.7315,-684.56144 L -1464.5565,-660.62809 L -1474.5231,-660.62809 L -1488.6147,-684.53642 L -1463.7483,-708.50313 L -1453.7733,-708.50313 L -1478.7315,-684.56144 z M -1438.8561,-708.50313 L -1428.8811,-708.50313 L -1442.6145,-660.62809 L -1452.5811,-660.62809 L -1438.8561,-708.50313 z M -1512.1395,-700.51977 L -1509.8481,-708.50313 L -1532.7729,-708.50313 C -1539.0645,-708.50313 -1545.5733,-705.48645 -1547.4063,-699.11145 L -1549.5814,-691.51976 C -1551.073,-686.31146 -1548.0897,-681.56978 -1540.6479,-681.56978 L -1529.4729,-681.56978 C -1527.8733,-681.56978 -1525.6563,-680.67812 -1526.9145,-676.31144 L -1527.4647,-674.3948 C -1528.4817,-670.87808 -1531.6149,-668.60312 -1534.4979,-668.60312 L -1556.14,-668.60312 L -1558.423,-660.62809 L -1534.4145,-660.62809 C -1528.0899,-660.62809 -1520.7399,-663.08641 -1518.3315,-671.47808 L -1516.6317,-677.36978 C -1514.2317,-685.72808 -1520.1981,-689.5448 -1525.9395,-689.5448 L -1536.4815,-689.5448 C -1537.9647,-689.5448 -1540.0563,-689.9198 -1539.2067,-692.88644 L -1538.4147,-695.66978 C -1537.3317,-699.44481 -1535.2815,-700.51977 -1532.4483,-700.51977 L -1512.1395,-700.51977 z M -1584.5734,-708.50313 L -1574.6068,-708.50313 L -1586.0482,-668.60312 L -1564.1146,-668.60312 L -1566.3982,-660.62809 L -1598.3068,-660.62809 L -1584.5734,-708.50313 z M -1424.6565,-660.62809 L -1410.9231,-708.50313 L -1376.9895,-708.50313 L -1379.2815,-700.51977 L -1404.0813,-700.51977 L -1407.2229,-689.5448 L -1386.6231,-689.56142 L -1388.9145,-681.57812 L -1409.5149,-681.56978 L -1413.2313,-668.60312 L -1388.4231,-668.60312 L -1390.7229,-660.62809 L -1424.6565,-660.62809 z M -1676.5066,-700.51977 C -1673.3734,-700.51977 -1672.8568,-697.83645 -1673.3566,-696.11145 L -1674.94,-690.57812 C -1676.2402,-686.07812 -1680.3148,-684.56144 -1682.5234,-684.56144 L -1694.665,-684.56144 L -1690.0816,-700.51977 L -1676.5066,-700.51977 z M -1697.7064,-708.50313 L -1711.4398,-660.62809 L -1701.4648,-660.62809 L -1696.6234,-677.5781 L -1681.5148,-677.5781 C -1676.623,-677.5781 -1668.0148,-679.9781 -1665.9484,-687.19478 L -1663.4482,-695.92815 C -1660.7818,-705.20313 -1668.8314,-708.50313 -1672.3648,-708.50313 L -1697.7064,-708.50313 z M -1641.3898,-668.61146 L -1627.8484,-668.61146 C -1624.2484,-668.61146 -1620.0814,-671.51978 -1618.6564,-676.46144 L -1613.7898,-693.45314 C -1612.5646,-697.70313 -1616.1484,-700.46145 -1618.348,-700.45311 L -1632.115,-700.42815 C -1635.94,-700.41981 -1640.0566,-697.24479 -1641.1234,-693.5198 L -1645.7566,-677.38646 C -1647.4984,-671.3198 -1644.0064,-668.61146 -1641.3898,-668.61146 z M -1631.1064,-708.43647 L -1617.6646,-708.43647 C -1610.6398,-708.43647 -1602.4234,-702.04479 -1604.7484,-693.94478 L -1610.5396,-673.72808 C -1612.7818,-665.90312 -1621.2898,-660.62809 -1629.2068,-660.62809 L -1639.765,-660.62809 C -1649.848,-660.62809 -1657.5568,-667.87808 -1654.8316,-677.38646 L -1649.5318,-695.84481 C -1647.298,-703.66977 -1638.9898,-708.43647 -1631.1064,-708.43647"
         id="path2664"
         style="fill:#063778;fill-opacity:1;fill-rule:evenodd;stroke:none" />
    </g>
  </g>
</svg>
