<svg xmlns="http://www.w3.org/2000/svg" xmlns:xlink="http://www.w3.org/1999/xlink" width="60" height="39" viewBox="0 0 60 39">
    <defs>
        <path id="a" d="M0 .065h9.776V5.5H0z"/>
    </defs>
    <g fill="none" fill-rule="evenodd">
        <path fill="#E1E1E1" d="M42.706 15.454l8.131-11.627 5.936 16.04-14.067-4.413zm-16.383 17.16l7.627-12.212 3.587.922a1.343 1.343 0 0 0 1.433-.53l2.123-3.036 13.74 4.31-28.51 10.547zm-2.905-.41l-5.933-16.037 13.74 3.534-7.807 12.504zM47.65 3.707l-10.345 14.79L19.824 14 47.65 3.706zM59.77 20.24l-6.84-18.488A2.662 2.662 0 0 0 51.535.247a2.663 2.663 0 0 0-2.051-.079L16.13 12.508a2.664 2.664 0 0 0-1.506 1.394 2.667 2.667 0 0 0-.079 2.05l6.84 18.49a2.665 2.665 0 0 0 1.395 1.505 2.668 2.668 0 0 0 2.05.079l33.353-12.34a2.685 2.685 0 0 0 1.585-3.445zM8.783 22.361a1.341 1.341 0 0 0-1.723-.792l-3.12 1.154a1.34 1.34 0 1 0 .931 2.515l3.12-1.154a1.342 1.342 0 0 0 .792-1.723"/>
        <g transform="translate(0 29.682)">
            <mask id="b" fill="#fff">
                <use xlink:href="#a"/>
            </mask>
            <path fill="#E1E1E1" d="M9.693.94A1.34 1.34 0 0 0 7.97.15L.876 2.9a1.34 1.34 0 1 0 .93 2.515L8.9 2.663A1.34 1.34 0 0 0 9.693.941" mask="url(#b)"/>
        </g>
        <path fill="#E1E1E1" d="M15.621 34.808a1.342 1.342 0 0 0-1.723-.792l-5.053 1.869a1.341 1.341 0 0 0 .931 2.515l5.052-1.87a1.34 1.34 0 0 0 .793-1.722"/>
    </g>
</svg>
