<svg viewBox="0 0 32 32" xmlns="http://www.w3.org/2000/svg" fill-rule="evenodd" clip-rule="evenodd" stroke-linejoin="round" stroke-miterlimit="1.414"><g fill-rule="nonzero"><path d="M30 0a2 2 0 0 1 2 2v28a2 2 0 0 1-2 2H2a2 2 0 0 1-2-2V2a2 2 0 0 1 2-2h28z" fill="#469fcc"/><path d="M0 2v28a2 2 0 0 0 2 2h28a2 2 0 0 0 2-2V2a2 2 0 0 0-2-2H2a2 2 0 0 0-2 2zm30 0v28H2V2h28z" fill="#469fcc" fill-opacity=".15"/><path d="M14.578 10.607l-7.033 7.031c-.781.781-.679 1.947.103 2.727.781.781 1.983.844 2.765.062l5.59-5.406 5.555 5.391c.781.781 2.062.797 2.843.016.781-.779.813-2.016.032-2.797l-7.025-7.023a2.001 2.001 0 0 0-2.83-.001z" fill="#fff"/></g></svg>