<svg xmlns="http://www.w3.org/2000/svg" xmlns:xlink="http://www.w3.org/1999/xlink" width="201" height="238" viewBox="0 0 201 238">
    <defs>
        <path id="a" d="M73,0.4V100H24c-4.4,0-8,3.6-8,8v8c0,4.4,3.6,8,8,8h54h4c4.4,0,8,3.6,8,8v8c0,4.4-3.6,8-8,8h-9H49
	c-4.4,0-8,3.6-8,8v40h-4c-4.4,0-8,3.6-8,8v8c0,4.4,3.6,8,8,8h163L73,0.4z"/>
        <filter id="b" filterUnits="objectBoundingBox">
            <feOffset in="SourceAlpha" result="shadowOffsetOuter1"/>
            <feGaussianBlur dy="2" in="shadowOffsetOuter1" result="shadowBlurOuter1" stdDeviation="2"/>
            <feColorMatrix in="shadowBlurOuter1" result="shadowMatrixOuter1" values="0 0 0 0 0.031372549 0 0 0 0 0.152941176 0 0 0 0 0.4 0 0 0 0.39 0"/>
            <feMerge>
                <feMergeNode in="shadowMatrixOuter1"/>
                <feMergeNode in="SourceGraphic"/>
            </feMerge>
        </filter>
        <path id="d" d="M73,0.4V100H24c-4.4,0-8,3.6-8,8v8c0,4.4,3.6,8,8,8h54h4c4.4,0,8,3.6,8,8v8c0,4.4-3.6,8-8,8h-9H49
	c-4.4,0-8,3.6-8,8v40h-4c-4.4,0-8,3.6-8,8v8c0,4.4,3.6,8,8,8h163L73,0.4z"/>
    </defs>
    <g fill="none" fill-rule="evenodd" transform="translate(-19)">
        <mask id="c" fill="#fff">
            <use xlink:href="#a"/>
        </mask>
        <g filter="url(#b)" mask="url(#c)">
            <g transform="translate(35)">
                <mask id="f" fill="#fff">
                    <use xlink:href="#d"/>
                </mask>
                <use fill="#005dc2" xlink:href="#d"/>
            </g>
        </g>
    </g>
</svg>
